<svg version="1.1" xmlns="http://www.w3.org/2000/svg" viewBox="-2570.85134884517 -3255.6938227545857 6770.433927500496 6770.449894761896"><desc>Created with Snap</desc><defs></defs><g><rect x="-2570.85134884517" y="-3255.6938227545857" width="6770.433927500496" height="6770.449894761896" style="" fill="#000000"></rect><g transform="matrix(16.3505,0,0,16.3505,-2455.7296,-3156.3054)">
<g id="gSl4gl794rw6">
	<path fill="#ffffff" d="M369.78955,219.42564l18.46289-18.46289l-18.46289-18.46289V31.17271H218.4624l-18.46289-18.46289
		l-18.46277,18.46289H30.20947v151.32812l-18.46191,18.46191l18.46191,18.46191v151.32811h151.32727l18.46277,18.46289
		l18.46289-18.46289h151.32715V219.42564z M375.52393,200.96275l-5.73438,5.73438v-11.46875L375.52393,200.96275z
		 M232.42529,344.06137h-64.85138L56.90088,233.3878v-64.8501L167.57391,57.86412h64.85138l110.67285,110.67285v64.85156
		L232.42529,344.06137z M343.09814,246.11705v97.94432h-97.94434L343.09814,246.11705z M223.42529,353.06137l-8.69141,8.69141
		H185.2652l-8.69135-8.69141H223.42529z M56.90088,246.11632l97.94458,97.94505H56.90088V246.11632z M47.90088,224.38756
		l-8.69141-8.69141v-29.4668l8.69141-8.69141V224.38756z M56.90088,155.80919V57.86412h97.94458L56.90088,155.80919z
		 M176.57385,48.86412l8.69135-8.69141h29.46869l8.69141,8.69141H176.57385z M343.09814,155.80846l-97.94434-97.94434h97.94434
		V155.80846z M352.09814,177.53697l8.69141,8.69141v29.46875l-8.69141,8.69141V177.53697z M360.78955,40.17271v133.32715
		l-8.69141-8.69141V48.86412H236.15381l-8.69141-8.69141H360.78955z M199.99951,25.43834l5.73438,5.73438H194.2652
		L199.99951,25.43834z M39.20947,40.17271h133.32727l-8.69135,8.69141H47.90088v115.94507l-8.69141,8.69165V40.17271z
		 M24.47607,200.96275l5.7334-5.7334v11.4668L24.47607,200.96275z M39.20947,361.75278V228.42467l8.69141,8.69165v115.94505
		H163.8454l8.69135,8.69141H39.20947z M199.99951,376.48715l-5.73431-5.73438h11.46869L199.99951,376.48715z M227.4624,361.75278
		l8.69141-8.69141h115.94434V237.11705l8.69141-8.69141v133.32713H227.4624z" style=""></path>
</g>


<desc>Created with Snap</desc><defs></defs></g><g><g transform="matrix(1.024,0,0,-1.024,0,0)"><path d="M41 0L41 700L341 700L341 600L151 600L151 415L302 415L302 315L151 315L151 100L341 100L341 0L41 0ZM404 0L404 700L567 700Q652 700 691 660Q730 621 730 539L730 496Q730 387 658 358L658 356Q698 344 714 307Q731 270 731 208L731 85Q731 55 733 36Q735 18 743 0L631 0Q625 17 623 32Q621 47 621 86L621 214Q621 262 605 281Q590 300 552 300L514 300L514 0L404 0ZM514 400L554 400Q587 400 603 417Q620 434 620 474L620 528Q620 566 606 583Q593 600 564 600L514 600L514 400ZM966 -10Q885 -10 842 36Q799 82 799 166L799 534Q799 618 842 664Q885 710 966 710Q1047 710 1090 664Q1133 618 1133 534L1133 166Q1133 82 1090 36Q1047 -10 966 -10ZM966 90Q1023 90 1023 159L1023 541Q1023 610 966 610Q909 610 909 541L909 159Q909 90 966 90ZM1350 -10Q1270 -10 1229 35Q1188 81 1188 166L1188 206L1292 206L1292 158Q1292 90 1349 90Q1377 90 1391 106Q1406 123 1406 160Q1406 204 1386 237Q1366 271 1312 318Q1244 378 1217 426Q1190 475 1190 536Q1190 619 1232 664Q1274 710 1354 710Q1433 710 1473 664Q1514 619 1514 534L1514 505L1410 505L1410 541Q1410 577 1396 593Q1382 610 1355 610Q1300 610 1300 543Q1300 505 1320 472Q1341 439 1395 392Q1464 332 1490 283Q1516 234 1516 168Q1516 82 1473 36Q1431 -10 1350 -10Z" style="" fill="#ffffff"></path></g></g><g transform="matrix(1,0,0,1,-421.3761,1044.48)"><g transform="matrix(1.024,0,0,-1.024,0,0)"><path d="M196 -10Q117 -10 75 35Q34 80 34 162L34 538Q34 620 75 665Q117 710 196 710Q275 710 316 665Q358 620 358 538L358 464L254 464L254 545Q254 610 199 610Q144 610 144 545L144 154Q144 90 199 90Q254 90 254 154L254 261L358 261L358 162Q358 80 316 35Q275 -10 196 -10ZM424 0L424 700L534 700L534 415L652 415L652 700L762 700L762 0L652 0L652 315L534 315L534 0L424 0ZM815 0L929 700L1078 700L1192 0L1082 0L1062 139L1062 137L937 137L917 0L815 0ZM950 232L1049 232L1000 578L998 578L950 232ZM1401 -10Q1321 -10 1279 35Q1237 81 1237 166L1237 534Q1237 619 1279 664Q1321 710 1401 710Q1481 710 1523 664Q1565 619 1565 534L1565 474L1461 474L1461 541Q1461 610 1404 610Q1347 610 1347 541L1347 158Q1347 90 1404 90Q1461 90 1461 158L1461 295L1406 295L1406 395L1565 395L1565 166Q1565 81 1523 35Q1481 -10 1401 -10ZM1607 0L1721 700L1870 700L1984 0L1874 0L1854 139L1854 137L1729 137L1709 0L1607 0ZM1742 232L1841 232L1792 578L1790 578L1742 232ZM2180 -10Q2100 -10 2059 35Q2018 81 2018 166L2018 206L2122 206L2122 158Q2122 90 2179 90Q2207 90 2221 106Q2236 123 2236 160Q2236 204 2216 237Q2196 271 2142 318Q2074 378 2047 426Q2020 475 2020 536Q2020 619 2062 664Q2104 710 2184 710Q2263 710 2303 664Q2344 619 2344 534L2344 505L2240 505L2240 541Q2240 577 2226 593Q2212 610 2185 610Q2130 610 2130 543Q2130 505 2150 472Q2171 439 2225 392Q2294 332 2320 283Q2346 234 2346 168Q2346 82 2303 36Q2261 -10 2180 -10Z" style="" fill="#ffffff"></path></g></g></g></svg>