<?xml version="1.0" encoding="UTF-8" standalone="no"?>
<svg
   version="1.1"
   viewBox="-2570.85134884517 -3255.6938227545857 6770.433927500496 6770.449894761896"
   id="svg31"
   sodipodi:docname="logo2.svg"
   inkscape:version="1.2 (dc2aedaf03, 2022-05-15)"
   xmlns:inkscape="http://www.inkscape.org/namespaces/inkscape"
   xmlns:sodipodi="http://sodipodi.sourceforge.net/DTD/sodipodi-0.dtd"
   xmlns="http://www.w3.org/2000/svg"
   xmlns:svg="http://www.w3.org/2000/svg">
  <sodipodi:namedview
     id="namedview33"
     pagecolor="#ffffff"
     bordercolor="#666666"
     borderopacity="1.0"
     inkscape:showpageshadow="2"
     inkscape:pageopacity="0.0"
     inkscape:pagecheckerboard="0"
     inkscape:deskcolor="#d1d1d1"
     showgrid="false"
     inkscape:zoom="0.12362547"
     inkscape:cx="3466.1143"
     inkscape:cy="3373.0914"
     inkscape:window-width="1920"
     inkscape:window-height="1017"
     inkscape:window-x="-8"
     inkscape:window-y="-8"
     inkscape:window-maximized="1"
     inkscape:current-layer="g29" />
  <desc
     id="desc2">Created with Snap</desc>
  <defs
     id="defs4" />
  <g
     id="g29">
    <rect
       x="-2570.85134884517"
       y="-3255.6938227545857"
       width="6770.433927500496"
       height="6770.449894761896"
       fill="#000000"
       id="rect6"
       style="" />
    <g
       transform="matrix(16.3505,0,0,16.3505,-2455.7296,-3156.3054)"
       id="g15">
      <g
         id="gSl4gl794rw6">
        <path
           fill="#ffffff"
           d="M369.78955,219.42564l18.46289-18.46289l-18.46289-18.46289V31.17271H218.4624l-18.46289-18.46289   l-18.46277,18.46289H30.20947v151.32812l-18.46191,18.46191l18.46191,18.46191v151.32811h151.32727l18.46277,18.46289   l18.46289-18.46289h151.32715V219.42564z M375.52393,200.96275l-5.73438,5.73438v-11.46875L375.52393,200.96275z    M232.42529,344.06137h-64.85138L56.90088,233.3878v-64.8501L167.57391,57.86412h64.85138l110.67285,110.67285v64.85156   L232.42529,344.06137z M343.09814,246.11705v97.94432h-97.94434L343.09814,246.11705z M223.42529,353.06137l-8.69141,8.69141   H185.2652l-8.69135-8.69141H223.42529z M56.90088,246.11632l97.94458,97.94505H56.90088V246.11632z M47.90088,224.38756   l-8.69141-8.69141v-29.4668l8.69141-8.69141V224.38756z M56.90088,155.80919V57.86412h97.94458L56.90088,155.80919z    M176.57385,48.86412l8.69135-8.69141h29.46869l8.69141,8.69141H176.57385z M343.09814,155.80846l-97.94434-97.94434h97.94434   V155.80846z M352.09814,177.53697l8.69141,8.69141v29.46875l-8.69141,8.69141V177.53697z M360.78955,40.17271v133.32715   l-8.69141-8.69141V48.86412H236.15381l-8.69141-8.69141H360.78955z M199.99951,25.43834l5.73438,5.73438H194.2652   L199.99951,25.43834z M39.20947,40.17271h133.32727l-8.69135,8.69141H47.90088v115.94507l-8.69141,8.69165V40.17271z    M24.47607,200.96275l5.7334-5.7334v11.4668L24.47607,200.96275z M39.20947,361.75278V228.42467l8.69141,8.69165v115.94505   H163.8454l8.69135,8.69141H39.20947z M199.99951,376.48715l-5.73431-5.73438h11.46869L199.99951,376.48715z M227.4624,361.75278   l8.69141-8.69141h115.94434V237.11705l8.69141-8.69141v133.32713H227.4624z"
           id="path8"
           style="" />
      </g>
      <desc
         id="desc11">Created with Snap</desc>
      <defs
         id="defs13" />
    </g>
    <g
       id="g1001"
       transform="matrix(5.6957328,0,0,5.6957328,-3812.1316,-608.24292)">
      <g
         transform="matrix(1.024,0,0,-1.024,440.52341,487.93103)"
         id="g19">
        <path
           d="M 41,0 V 700 H 341 V 600 H 151 V 415 H 302 V 315 H 151 V 100 H 341 V 0 Z"
           fill="#ffffff"
           id="path17"
           sodipodi:nodetypes="ccccccccccccc" />
      </g>
      <g
         transform="translate(-103.46335,1528.9255)"
         id="g27">
        <g
           transform="scale(1.024,-1.024)"
           id="g25">
          <path
             d="m 1061.7825,1006.5962 c -52.6667,0 -93,15 -121,45 -27.33333,30 -41,72.3334 -41,127 v 376 c 0,54.6667 13.66667,97 41,127 28,30 68.3333,45 121,45 52.6667,0 92.6667,-15 120,-45 28,-30 42,-72.3333 42,-127 v -74 h -104 v 81 c 0,43.3334 -18.3333,65 -55,65 -36.6667,0 -55,-21.6666 -55,-65 v -391 c 0,-42.6666 18.3333,-64 55,-64 36.6667,0 55,21.3334 55,64 v 107 h 104 v -99 c 0,-54.6666 -14,-97 -42,-127 -27.3333,-30 -67.3333,-45 -120,-45 z"
             fill="#ffffff"
             id="path23"
             sodipodi:nodetypes="scsscscsccssssssccscs" />
        </g>
      </g>
    </g>
  </g>
</svg>
